<svg id="Layer_1" data-name="Layer 1" xmlns="http://www.w3.org/2000/svg" viewBox="0 0 1000 415.11"><defs><style>.cls-1{fill:#fff;}.cls-2{fill:none;}</style></defs><path class="cls-1" d="M273.67,213.41c0,11.38-4.51,17-14.18,17s-14.18-5.59-14.18-17V96.32H218.67v116c0,26.64,15.47,41.25,40.82,41.25s40.82-14.61,40.82-41.25v-116H273.67ZM93.2,169.8c12.89-5.16,18.48-19.12,18.48-32.45,0-26.42-12.68-41-41.25-41H30.89V251.43H73c30.3,0,41.68-19.33,41.68-44.9C114.68,186.55,106.73,175.81,93.2,169.8ZM57.54,118.23H67.63c11.82,0,17.4,7.52,17.4,21.92C85,153,77.3,159.91,67.2,159.91H57.54ZM68.71,229.52H57.54V181.83h8.59C82,181.83,88,189.78,88,205.67,88,221.36,82.89,229.52,68.71,229.52Zm283.78-46.84h34.38v-23.2H352.49v-40h44.69V96.32H325.85V251.43h74.34v-23.2h-47.7ZM163,96.32H136.39V251.43h68.53v-23.2H163ZM839.32,251.43H866V96.32H839.32ZM776,94.17c-27.93,0-40.82,17.83-40.82,39.75v79.92c0,21.91,12.89,39.74,40.82,39.74,0,0,14.7-.63,26.46-9.52l14,9.52V173.05h-43.3v21.06H792.4V213s0,.34,0,.91v0c0,17.32-14.77,16.41-14.77,16.41-.52,0-1,0-1.6,0-10.74,0-14.18-5.59-14.18-17.18V134.56c0-11.6,3.44-17.19,14.18-17.19s14.18,5.59,14.18,17.19v12h26.64V133.92C816.85,112,804,94.17,776,94.17Zm-263.62,0c-27.93,0-40.82,17.83-40.82,39.75v79.92c0,21.91,12.89,39.74,40.82,39.74s40.82-17.83,40.82-39.74V133.92C553.23,112,540.33,94.17,512.41,94.17Zm14.18,119c0,11.59-3.44,17.18-14.18,17.18s-14.18-5.59-14.18-17.18V134.56c0-11.6,3.43-17.19,14.18-17.19s14.18,5.59,14.18,17.19ZM951.8,96.32v91.86L915.42,96.32H891.35V251.43h24.07V159.57l36.38,91.86h24.06V96.32ZM683.48,251.43h26.63V96.32H683.48ZM659.3,142.08c0-33.08-15.26-45.76-45.12-45.76H576.8V251.43h26.64V187.84a130.79,130.79,0,0,0,13.46-.61l18.89,64.2h27.38L640.6,181.18C649.63,177.1,659.3,167,659.3,142.08Zm-46.41,23.85h-9.45v-47.7h9.45c14.4,0,19.77,5.37,19.77,23.85S627.29,165.93,612.89,165.93Z"/><rect class="cls-2" y="-76.44" width="1000" height="568"/><path class="cls-1" d="M30.89,302.3H53.72v1.94l-.86.86H33.69v11.84H49v2.8H33.69v12.7h-2.8Z"/><path class="cls-1" d="M70.52,308.76a6.56,6.56,0,0,1,6.89-6.89H90.55a6.56,6.56,0,0,1,6.89,6.89V326a6.56,6.56,0,0,1-6.89,6.89H77.41A6.56,6.56,0,0,1,70.52,326Zm19.81,21.31c2.8,0,4.31-1.5,4.31-4.3V309c0-2.8-1.51-4.3-4.31-4.3H77.63c-2.8,0-4.31,1.5-4.31,4.3v16.8c0,2.8,1.51,4.3,4.31,4.3Z"/><path class="cls-1" d="M118.55,302.3h18.52a6.56,6.56,0,0,1,6.89,6.89v4.52a6.56,6.56,0,0,1-6.89,6.89l7.1,10.34v1.5H141.8l-8.18-11.84H121.35v11.84h-2.8Zm18.3,15.5c2.8,0,4.31-1.51,4.31-4.3v-4.1c0-2.79-1.51-4.3-4.31-4.3h-15.5v12.7Z"/><path class="cls-1" d="M195.22,305.1H183.59v-2.8h26.06v1.94l-.87.86H198v27.34h-2.8Z"/><path class="cls-1" d="M228,302.3h2.8v13.35h20.45V302.3H254v30.14h-2.8v-14H230.76v14H228Z"/><path class="cls-1" d="M276,302.3h23v1.94l-.86.86H278.78v10.55H294.5v2.8H278.78v11.19H299v2.8H276Z"/><path class="cls-1" d="M342.53,302.3h18.09a6.56,6.56,0,0,1,6.89,6.89v1.72c0,4.74-3.88,5.6-3.88,5.6v.21s4.31.87,4.31,6v2.8a6.56,6.56,0,0,1-6.89,6.89H342.53Zm17.87,13.13c2.8,0,4.31-1.5,4.31-4.3V309.4c0-2.79-1.51-4.3-4.31-4.3H345.33v10.33Zm.43,14.21c2.8,0,4.31-1.5,4.31-4.3v-2.8c0-2.8-1.51-4.31-4.31-4.31h-15.5v11.41Z"/><path class="cls-1" d="M388.62,302.3h23v1.94l-.86.86H391.42v10.55h15.72v2.8H391.42v11.19h20.24v2.8h-23Z"/><path class="cls-1" d="M431.05,302.3h3l20.46,25.84h.21V302.3h2.8v30.14h-3l-20.46-25.83h-.21v25.83h-2.8Z"/><path class="cls-1" d="M479.51,302.3h23v1.94l-.87.86H482.3v10.55H498v2.8H482.3v11.19h20.25v2.8h-23Z"/><path class="cls-1" d="M521.93,302.3h22.83v1.94l-.86.86H524.73v11.84H540v2.8H524.73v12.7h-2.8Z"/><path class="cls-1" d="M563.28,302.3h2.8v30.14h-2.8Z"/><path class="cls-1" d="M596,305.1H584.39v-2.8h26.05v1.94l-.86.86H598.82v27.34H596Z"/><path class="cls-1" d="M650.29,308.76a6.56,6.56,0,0,1,6.89-6.89h13.14a6.56,6.56,0,0,1,6.89,6.89V326a6.56,6.56,0,0,1-6.89,6.89H657.18a6.56,6.56,0,0,1-6.89-6.89Zm19.81,21.31c2.8,0,4.31-1.5,4.31-4.3V309c0-2.8-1.51-4.3-4.31-4.3H657.4c-2.8,0-4.31,1.5-4.31,4.3v16.8c0,2.8,1.51,4.3,4.31,4.3Z"/><path class="cls-1" d="M698.32,302.3h22.82v1.94l-.86.86H701.12v11.84h15.29v2.8H701.12v12.7h-2.8Z"/><path class="cls-1" d="M760.78,302.3h26.91v4.52l-2.58,2.58H769v4.53h13.78v6.89H769v4.52h18.73v7.1H760.78Z"/><path class="cls-1" d="M803,328.57,814.4,302.3h10.77l11.41,26.27v3.87h-8l-1.94-5.16H812.89L811,332.44h-8Zm21.1-8L820,309.84h-.43l-4.09,10.76Z"/><path class="cls-1" d="M853.17,302.3h22.61a6.67,6.67,0,0,1,7.1,7.1V315a6.25,6.25,0,0,1-5.38,6.46l6,6.89v4.09h-7.45L868,322.11h-6.68v10.33h-8.18Zm19.59,12.49a1.72,1.72,0,0,0,1.94-1.94v-1.29a1.72,1.72,0,0,0-1.94-1.94H861.35v5.17Z"/><path class="cls-1" d="M910.45,309.62h-11V302.3h30.15V307L927,309.62h-8.39v22.82h-8.19Z"/><path class="cls-1" d="M946.64,302.3h8.18v11.41H969V302.3h8.18v30.14H969V321H954.82v11.41h-8.18Z"/></svg>